<svg id="Capa_1" data-name="Capa 1" xmlns="http://www.w3.org/2000/svg" viewBox="0 0 1058.15 1054.24"><defs><style>.cls-1,.cls-3{fill:none;stroke-linecap:round;stroke-linejoin:round;}.cls-1{stroke:#81cac1;stroke-width:20.34px;}.cls-2{fill:#35545c;}.cls-3{stroke:#35545c;stroke-width:12.2px;}.cls-4{fill:#f7e375;}.cls-5{fill:#e06b6b;}.cls-6{fill:#81cac1;}.cls-7{fill:#fff;}</style></defs><title>WUKY L</title><path class="cls-1" d="M799.56,99.78c155,89.74,259.35,257.4,259.35,449.42S954.58,908.93,799.51,998.66" transform="translate(-10.93 -13)"/><path class="cls-1" d="M280.62,998.73C125.48,909,21.1,741.31,21.1,549.21S125.46,189.42,280.59,99.7" transform="translate(-10.93 -13)"/><path class="cls-2" d="M764.18,85.28q-4.5,11.4-13.85,15.55t-20.47-.25q-9.24-3.64-12-12T719.55,69q4.65-11.8,13.54-15.83t19.76.38q9.24,3.64,12.37,12.36t-1,19.38m-7.74-3q3.08-7.81,1-13.71t-8.61-8.48q-14.64-5.77-21.57,11.81-3.2,8.11-1.74,13.72a11.42,11.42,0,0,0,7.4,8q7.69,3,13.93.07T756.44,82.32Z" transform="translate(-10.93 -13)"/><path class="cls-2" d="M718.39,32.81c0-.15-.69,1.8-2.19,5.89q-2.6,7.12-5.28,15.2-3.78,11.67-7.57,25c-.52,1.82-1,3.69-1.55,5.61l-.82,3q-1.7,6-5.51,4.9c-2.77-.79-3.53-3.43-2.25-7.93.3-1,.56-1.85.78-2.43a25.15,25.15,0,0,1-19.65,2.5q-8.32-2.36-11.66-9.14T662,59.23q3.65-12.86,13-18.76t20.75-2.65a28.66,28.66,0,0,1,10.3,5.59q3.46-11,4.61-13.09c1.36-2.56,3.23-3.51,5.59-2.84s3,2.41,2.14,5.33m-14.94,18.3a20.55,20.55,0,0,0-9.63-6.29q-8.18-2.32-14.52,2t-9.09,14q-1.88,6.62.27,11.21a11.48,11.48,0,0,0,7.76,6.17q7.07,2,12.1-1.64c1-.85,2-1.71,2.94-2.6a4.66,4.66,0,0,1,3.46-1.18Q700,61.44,703.45,51.11Z" transform="translate(-10.93 -13)"/><path class="cls-2" d="M653.42,51.75a62.27,62.27,0,0,1-6.66,18.84q-3,5.64-6,5.13a4,4,0,0,1-2.49-1.44,3,3,0,0,1-.69-2.51q.07-.38,3.32-7.15a53.37,53.37,0,0,0,4.5-13.78q2.85-16-7.17-17.75a11.94,11.94,0,0,0-10.1,2.56q-4.54,3.68-5.81,10.82a74,74,0,0,0-.81,11.32,72.8,72.8,0,0,1-.64,10.37q-1.26,7.06-5.3,6.34a3.72,3.72,0,0,1-2.68-1.42A6.72,6.72,0,0,1,612.4,70c.27-1.7.81-6.65,1.6-14.89q1.38-17.31,2.64-24.45,2.22-12.45,7-11.6a3.92,3.92,0,0,1,2.48,1.44,3,3,0,0,1,.69,2.44,21.43,21.43,0,0,1-1.11,3.32,22.4,22.4,0,0,0-1.26,4.14l-.17.94q7.57-7.17,16.3-5.61,8,1.43,11.43,8.16t1.43,17.81" transform="translate(-10.93 -13)"/><path class="cls-2" d="M598.25,67.93a4.89,4.89,0,0,1-1.46,3.27,3.79,3.79,0,0,1-3.07,1.15q-3.28-.25-4.77-10.56-7.76,9.09-17.78,8.33-16.59-1.26-14.58-27.75a137.46,137.46,0,0,1,3.59-23.53q1.56-6.16,5.76-5.83a3.84,3.84,0,0,1,3.46,4q-.1,1.32-2,10.22A127.67,127.67,0,0,0,565,43.88q-1.35,17.78,8.46,18.53a12,12,0,0,0,10.44-4.16q4.1-4.64,4.78-13.62l.19-2.46q1.06-13.93,2-17.82,1.43-5.57,5.1-5.3c2.34.18,3.38,1.89,3.14,5.14,0,.58-.32,2.67-.82,6.29s-.87,6.92-1.1,9.91a113.67,113.67,0,0,0,.09,19.7c.6,6,.93,8.67,1,7.83" transform="translate(-10.93 -13)"/><path class="cls-2" d="M540.24,39.74q2.42,31.84-5.15,32.42c-1.94.15-3-1-3.19-3.44t.68-9.6a128.51,128.51,0,0,0,0-19Q531.37,24.46,524,25q-6.5.49-7.93,8.56-1.07,6.19.28,24a47.72,47.72,0,0,0,.89,6c.45,2.18.69,3.47.72,3.86.21,2.74-1,4.22-3.59,4.41q-4.71.36-5.84-14.62Q508,50.93,508,44t-.09-7.4q-.47-6.13-7-5.64a9.26,9.26,0,0,0-8.42,6.11q-2.26,5.48-1.4,16.9.56,7.35,1.45,13.65a49.15,49.15,0,0,0,.83,5.31,3.38,3.38,0,0,1-1,2.7,4.15,4.15,0,0,1-2.85,1.26c-2.46.19-4.17-2.05-5.11-6.72q-.43-2-1.09-10.54a195.44,195.44,0,0,1,.29-34.29,27.76,27.76,0,0,1,1.35-7.23,3.81,3.81,0,0,1,3.45-2.39c2.6-.2,4,1.1,4.21,3.86t-1.09,9.52a11.83,11.83,0,0,1,9.85-5.8,9.63,9.63,0,0,1,8.7,3.77q4.62-9.07,14.23-9.79,14.06-1.07,15.84,22.46" transform="translate(-10.93 -13)"/><path d="M447.46,75.8a4.88,4.88,0,0,1-.42,3.56,3.79,3.79,0,0,1-2.59,2q-3.2.74-7.7-8.66-4.7,11-14.49,13.25-16.21,3.74-22.19-22.14a137.46,137.46,0,0,1-3.59-23.53Q396.14,34,400.24,33a3.84,3.84,0,0,1,4.51,2.82q.3,1.29,1.16,10.34a127.69,127.69,0,0,0,2.6,16.6q4,17.38,13.6,15.17a12,12,0,0,0,8.73-7.08q2.53-5.65.5-14.42l-.55-2.4q-3.14-13.61-3.37-17.62c-.2-3.83.9-6,3.29-6.57s3.79.79,4.52,4c.13.57.49,2.65,1.09,6.25s1.23,6.86,1.91,9.79a113.68,113.68,0,0,0,6,18.78C446.55,74.21,447.65,76.62,447.46,75.8Z" transform="translate(-10.93 -13)"/><path class="cls-3" d="M447.46,75.8a4.88,4.88,0,0,1-.42,3.56,3.79,3.79,0,0,1-2.59,2q-3.2.74-7.7-8.66-4.7,11-14.49,13.25-16.21,3.74-22.19-22.14a137.46,137.46,0,0,1-3.59-23.53Q396.14,34,400.24,33a3.84,3.84,0,0,1,4.51,2.82q.3,1.29,1.16,10.34a127.69,127.69,0,0,0,2.6,16.6q4,17.38,13.6,15.17a12,12,0,0,0,8.73-7.08q2.53-5.65.5-14.42l-.55-2.4q-3.14-13.61-3.37-17.62c-.2-3.83.9-6,3.29-6.57s3.79.79,4.52,4c.13.57.49,2.65,1.09,6.25s1.23,6.86,1.91,9.79a113.68,113.68,0,0,0,6,18.78C446.55,74.21,447.65,76.62,447.46,75.8Z" transform="translate(-10.93 -13)"/><path d="M382.86,39.89a4.26,4.26,0,0,1-.06,3.19,3.69,3.69,0,0,1-2,2.21,5.93,5.93,0,0,1-2.55.24c-1.45-.1-2.31-.16-2.56-.14q-5.73.38-20.61,5.26,7.53,17.69,10.85,26.12,6.46,16.37,10.21,28.22a13.94,13.94,0,0,1,.9,5.69,3.69,3.69,0,0,1-2.56,2.94q-3.72,1.46-5.7-3.54-.08-.2-3.51-10.66T357.86,79q-2.18-5.52-10.47-25.38Q333.19,59.37,328.55,65q2.38,8.06-1.68,9.66-3.28,1.29-5.19-3.57-3.08-7.81.92-12.12,6.79-7.24,24.17-14.11Q379.69,31.85,382.86,39.89Z" transform="translate(-10.93 -13)"/><path class="cls-3" d="M382.86,39.89a4.26,4.26,0,0,1-.06,3.19,3.69,3.69,0,0,1-2,2.21,5.93,5.93,0,0,1-2.55.24c-1.45-.1-2.31-.16-2.56-.14q-5.73.38-20.61,5.26,7.53,17.69,10.85,26.12,6.46,16.37,10.21,28.22a13.94,13.94,0,0,1,.9,5.69,3.69,3.69,0,0,1-2.56,2.94q-3.72,1.46-5.7-3.54-.08-.2-3.51-10.66T357.86,79q-2.18-5.52-10.47-25.38Q333.19,59.37,328.55,65q2.38,8.06-1.68,9.66-3.28,1.29-5.19-3.57-3.08-7.81.92-12.12,6.79-7.24,24.17-14.11Q379.69,31.85,382.86,39.89Z" transform="translate(-10.93 -13)"/><path class="cls-2" d="M760.44,986.23a91.94,91.94,0,0,1,6.79,23.15c.71,4.26,0,6.84-2,7.74s-3.62.23-4.67-2.09a7,7,0,0,1-.46-1.22,18.22,18.22,0,0,1-7.07,5.73c-4.88,2.21-9.33,2.56-13.31,1s-7.12-4.76-9.37-9.73-2.6-9.7-1-14,4.9-7.54,9.81-9.76a16.4,16.4,0,0,1,12.77-.62q-7.51-14.7-17.94-10a11.69,11.69,0,0,0-4.32,3.64,11.56,11.56,0,0,1-2.8,3,3.44,3.44,0,0,1-2.8,0,3.73,3.73,0,0,1-2.13-2q-1-2.28,1.4-5.71a18,18,0,0,1,7.5-5.91q18.21-8.23,29.52,16.77m-3.7,12.34q-4.36-9.65-13.46-5.54-10,4.51-5.65,14.08t14.26,5.18a9.77,9.77,0,0,0,5.59-5.57Q758.78,1003.09,756.74,998.57Z" transform="translate(-10.93 -13)"/><path class="cls-2" d="M720.15,989.3a3.59,3.59,0,0,1-.08,2.64,2.83,2.83,0,0,1-1.73,1.67,27.35,27.35,0,0,1-5.07,0,22.38,22.38,0,0,0-8.25,1.08,21.63,21.63,0,0,0-2.44,1,56,56,0,0,0,2.52,12.3c1.56,4.61,3.54,7.88,5.94,9.83a7.71,7.71,0,0,0,7.76,1.51,10.42,10.42,0,0,0,3.08-1.95,10.26,10.26,0,0,1,2.72-1.82q3.18-1.07,4.43,2.65a4.69,4.69,0,0,1-1.28,4.79,15,15,0,0,1-6.6,3.92q-16.75,5.67-24.31-16.67a54.93,54.93,0,0,1-2.36-10.75c-.71.36-2.2,1.19-4.47,2.52a22.22,22.22,0,0,1-3.4,1.68q-4.23,1.43-5.32-1.81-1.49-4.41,12.62-10.67-.24-10.56,4.09-12a3.19,3.19,0,0,1,2.59.2,3.45,3.45,0,0,1,1.72,2,8.29,8.29,0,0,1,.29,2.8c0,1.17-.09,2.36-.12,3.54q15.55-4.7,17.65,1.51" transform="translate(-10.93 -13)"/><path class="cls-2" d="M682,1011.75q2.76,11.94-2.6,20.66t-17,11.39q-9.68,2.23-16.69-3.1T636,1023.61q-2.85-12.36,2.19-20.71T654.68,992q9.68-2.23,17.2,3.18T682,1011.75m-8.06,1.95q-1.89-8.18-6.92-11.88c-3.34-2.46-7.32-3.16-11.9-2.11q-15.34,3.54-11.08,21.95,2,8.49,6.34,12.29a11.42,11.42,0,0,0,10.62,2.37q8.05-1.86,11.52-7.83T673.95,1013.69Z" transform="translate(-10.93 -13)"/><path class="cls-2" d="M636.05,1036.71q.55,4.3-7.33,12.15-5.57,5.51-15.56,6.77t-16.47-4.55q-6.67-5.91-8.16-17.55-1.91-15,3.72-24.25t17.34-10.71q8.69-1.1,14.72,2.08,5.72,3,6.36,8c.35,2.78-.77,4.35-3.35,4.67a2.94,2.94,0,0,1-2.82-.95,43.83,43.83,0,0,0-2.85-4.26q-3.35-3-11.09-2-8.07,1-11.7,7.69t-2.19,18q2.28,17.92,16.5,16.12a19.26,19.26,0,0,0,13.32-7.66s.71-1.38,2.08-4.07c.81-1.62,1.85-2.52,3.12-2.68a3.84,3.84,0,0,1,2.83.8,3.38,3.38,0,0,1,1.52,2.35" transform="translate(-10.93 -13)"/><path class="cls-2" d="M583.9,1014.79c.21,2.77-1.09,4.27-3.89,4.48a2.77,2.77,0,0,1-2.36-.86c-.43-.61-.89-1.23-1.35-1.85a8.26,8.26,0,0,0-7.1-2.8q-7.35.56-6.72,8.91a9,9,0,0,0,1.71,4.88,16.72,16.72,0,0,0,4.34,3.73q6.94,4.53,8.71,6.32a13.34,13.34,0,0,1,4.09,8.73,14.47,14.47,0,0,1-3.51,11.16,15.6,15.6,0,0,1-11,5,16.7,16.7,0,0,1-11.12-2.62,10.38,10.38,0,0,1-4.76-8.08q-.39-5.11,4-5.45,3.71-.28,4.27,5.42,3.27,3.35,7,3.07a7.08,7.08,0,0,0,5-2.29,6.29,6.29,0,0,0,1.61-4.88,6.7,6.7,0,0,0-2.78-4.69q0-.08-6.49-4.4-8.92-6-9.6-14.95-.55-7.28,3.58-12.11t11.37-5.38a16.74,16.74,0,0,1,10.43,2.35q4.25,2.63,4.53,6.3" transform="translate(-10.93 -13)"/><path class="cls-2" d="M545.26,1037.32a92,92,0,0,1-3.95,23.8c-1.22,4.14-2.93,6.18-5.13,6.12s-3.36-1.37-3.29-3.91A7.06,7.06,0,0,1,533,1062a18.21,18.21,0,0,1-8.85,2.08c-5.35-.14-9.51-1.75-12.44-4.86s-4.34-7.39-4.2-12.84,1.87-9.87,5.21-13,7.69-4.66,13.07-4.53a16.4,16.4,0,0,1,11.77,5q-.37-16.5-11.81-16.79a11.69,11.69,0,0,0-5.48,1.4,11.56,11.56,0,0,1-3.81,1.44,3.44,3.44,0,0,1-2.52-1.23,3.73,3.73,0,0,1-1.06-2.7c0-1.67,1.29-3.17,3.75-4.53a18,18,0,0,1,9.32-2.06q20,.51,19.29,27.93m-8.7,9.51q.27-10.59-9.71-10.84-11-.28-11.21,10.23t10.59,10.86a9.77,9.77,0,0,0,7.46-2.59Q536.42,1051.78,536.56,1046.82Z" transform="translate(-10.93 -13)"/><path class="cls-2" d="M501.49,1033.06q-4,31.67-11.55,30.72c-1.94-.25-2.74-1.58-2.43-4t2.6-9.27a128.54,128.54,0,0,0,3.78-18.59q2-15.59-5.38-16.53-6.46-.82-9.49,6.79-2.29,5.84-4.54,23.55a47.71,47.71,0,0,0-.34,6.07c0,2.23,0,3.54-.07,3.92-.35,2.73-1.82,3.93-4.4,3.6q-4.68-.59-2.78-15.5.8-6.27,2.15-13t1.4-7.27q.78-6.1-5.68-6.92a9.26,9.26,0,0,0-9.47,4.29q-3.32,4.92-4.77,16.27-.93,7.31-1.32,13.67a49.18,49.18,0,0,0-.25,5.36,3.38,3.38,0,0,1-1.47,2.45,4.15,4.15,0,0,1-3,.66c-2.44-.31-3.67-2.85-3.65-7.61q0-2.07,1.05-10.54A195.44,195.44,0,0,1,449,1007.6a27.75,27.75,0,0,1,2.77-6.81,3.81,3.81,0,0,1,3.86-1.65c2.58.33,3.69,1.88,3.34,4.63t-3,9.11a11.83,11.83,0,0,1,10.82-3.71,9.63,9.63,0,0,1,7.76,5.44q6.35-8,15.91-6.73,14,1.78,11,25.18" transform="translate(-10.93 -13)"/><path d="M405.4,1042.82a4.88,4.88,0,0,1-2.09,2.92,3.79,3.79,0,0,1-3.24.52q-3.16-.9-2.56-11.3-9.42,7.36-19.09,4.61-16-4.54-8.75-30.1a137.45,137.45,0,0,1,8.21-22.34q2.76-5.72,6.8-4.57a3.84,3.84,0,0,1,2.59,4.64q-.36,1.27-4,9.62a127.72,127.72,0,0,0-5.73,15.79q-4.87,17.15,4.59,19.85a12,12,0,0,0,11.06-2q4.94-3.72,7.4-12.39l.67-2.37q3.82-13.44,5.55-17.06,2.51-5.17,6.05-4.17,3.39,1,2,5.66c-.16.56-.84,2.56-2.06,6s-2.23,6.6-3.05,9.49a113.67,113.67,0,0,0-3.84,19.32C405.37,1041,405.17,1043.63,405.4,1042.82Z" transform="translate(-10.93 -13)"/><path class="cls-3" d="M405.4,1042.82a4.88,4.88,0,0,1-2.09,2.92,3.79,3.79,0,0,1-3.24.52q-3.16-.9-2.56-11.3-9.42,7.36-19.09,4.61-16-4.54-8.75-30.1a137.45,137.45,0,0,1,8.21-22.34q2.76-5.72,6.8-4.57a3.84,3.84,0,0,1,2.59,4.64q-.36,1.27-4,9.62a127.72,127.72,0,0,0-5.73,15.79q-4.87,17.15,4.59,19.85a12,12,0,0,0,11.06-2q4.94-3.72,7.4-12.39l.67-2.37q3.82-13.44,5.55-17.06,2.51-5.17,6.05-4.17,3.39,1,2,5.66c-.16.56-.84,2.56-2.06,6s-2.23,6.6-3.05,9.49a113.67,113.67,0,0,0-3.84,19.32C405.37,1041,405.17,1043.63,405.4,1042.82Z" transform="translate(-10.93 -13)"/><path d="M379.18,983.56a4.26,4.26,0,0,1-2.22,2.29,3.69,3.69,0,0,1-3,.23,5.93,5.93,0,0,1-2-1.57c-1-1.06-1.58-1.69-1.78-1.85q-4.44-3.63-18.65-10.22-6.57,18.07-9.89,26.49-6.46,16.37-11.8,27.59a13.94,13.94,0,0,1-3.23,4.77,3.69,3.69,0,0,1-3.88.4q-3.72-1.47-1.75-6.47.08-.2,4.71-10.19t8.57-20q2.18-5.52,9.67-25.69-14.33-5.47-21.53-4.54-3.77,7.51-7.83,5.91-3.28-1.29-1.36-6.15,3.08-7.81,8.94-8.23,9.9-.66,27.3,6.19Q382.35,975.52,379.18,983.56Z" transform="translate(-10.93 -13)"/><path class="cls-3" d="M379.18,983.56a4.26,4.26,0,0,1-2.22,2.29,3.69,3.69,0,0,1-3,.23,5.93,5.93,0,0,1-2-1.57c-1-1.06-1.58-1.69-1.78-1.85q-4.44-3.63-18.65-10.22-6.57,18.07-9.89,26.49-6.46,16.37-11.8,27.59a13.94,13.94,0,0,1-3.23,4.77,3.69,3.69,0,0,1-3.88.4q-3.72-1.47-1.75-6.47.08-.2,4.71-10.19t8.57-20q2.18-5.52,9.67-25.69-14.33-5.47-21.53-4.54-3.77,7.51-7.83,5.91-3.28-1.29-1.36-6.15,3.08-7.81,8.94-8.23,9.9-.66,27.3,6.19Q382.35,975.52,379.18,983.56Z" transform="translate(-10.93 -13)"/><path class="cls-4" d="M853.74,447.81c-1.63-13.7-4.74-26.84-8.08-40.26a122.87,122.87,0,0,0-8-23.08,196.93,196.93,0,0,0-17.17-30.12c-6.57-9.2-14.75-17.31-22.62-25.32a139.71,139.71,0,0,0-13.94-12.34c-13.88-10.79-29.21-19.89-44.64-28.26-23-12.45-47.18-22.36-70.24-34.61q-5.51-2.93-10.89-6.07c-20.72-13.58-40-29.16-60-43.75-14.93-10.89-30.43-20.91-46.35-30.31A207.63,207.63,0,0,0,515,156.26c-10.94-3.83-22.5-8-34.16-9.29a171.39,171.39,0,0,0-25-.88c-8.75.28-17.71,3-25.88,5.36-7.39,2.1-15.49,7.22-21.32,10.85a67.38,67.38,0,0,0-12,9.78,65.34,65.34,0,0,0-7.92,4.94C378,184.35,369,193.24,359.7,202.17a151.51,151.51,0,0,0-15.32,17.11,268,268,0,0,0-20.68,32.3A158.37,158.37,0,0,0,314,272.47a276.79,276.79,0,0,0-11.21,37,154.52,154.52,0,0,0-3.42,22.75c-1,12.94-1.5,26.13-.51,39.11s4.27,25.63,7.39,38.4c4.52,18.49,12.47,35.88,17.94,54.06a173.64,173.64,0,0,1,2.29,29.58c-.66,12.25-1.75,24.48-2.41,36.73-1,19.44-2.35,39.66.69,59,1.93,12.33,4.72,24.84,9.17,36.53a83.39,83.39,0,0,0,4.08,9.08c4.06,7.74,8.14,15.87,13.21,23.11,6.29,9,14.24,17.05,22.32,24.36s17.86,12.87,27.11,18.25a91.79,91.79,0,0,0,16.54,7.49c10.44,3.57,21.26,7.07,32.2,9a133.84,133.84,0,0,0,18.11,1.86c11.57.44,23.12,1,34.66.06a161.8,161.8,0,0,0,19.16-2.78,323.12,323.12,0,0,0,33.49-8.44c15-4.82,29.43-11.43,43.51-18.46,29.15-14.56,57.29-31.57,88.28-42.08,16.69-5.66,34.08-9,50.69-14.94A201.36,201.36,0,0,0,760,622.37a396.44,396.44,0,0,0,35-19.62,125.53,125.53,0,0,0,17.72-13.22c6.2-5.7,13-11.58,18.44-18.19s10.05-14.49,14.21-22.08,6.31-16.72,8.5-24.57a64.17,64.17,0,0,0,2.18-12,250.52,250.52,0,0,0,0-39.72c-.64-8.38-1.3-16.77-2.29-25.12" transform="translate(-10.93 -13)"/><path d="M353.21,212a151.86,151.86,0,0,0-23,12.27c-1.74,1.21-3.49,2.46-5.26,3.79s-3.49,2.82-5.29,4.35c-.91.76-1.78,1.6-2.68,2.45s-1.81,1.73-2.73,2.64-1.82,1.89-2.75,2.89-1.88,2-2.81,3.12l-2.22,2.64-1.41,1.68-1.6,2c-1.15,1.47-2.49,3.15-4,5.19-.74,1-1.55,2.09-2.37,3.27l-2.62,3.81c-3.45,5.15-7.25,11.31-11.09,18.13s-7.8,14.27-11.88,21.93-8.31,15.55-12.68,23.31-8.89,15.38-13.35,22.62c-8.94,14.46-17.7,27.29-24.26,36.49-3.23,4.62-6,8.3-7.84,10.86l-2.16,3-.76,1-2.5,3.32L205,406.69l-1.85,2.45c-.72,1-1.48,2-2.24,3.06A82.05,82.05,0,0,0,192,428.75c-.32.84-.65,1.68-1,2.55-.16.43-.31.87-.45,1.31l-.22.66c-.07.22-.15.44-.23.72a31,31,0,0,0-1.27,6.63,46.08,46.08,0,0,0,.91,13,97.94,97.94,0,0,0,3.36,12.12c1.32,3.93,2.77,7.75,4.13,11.52a112.89,112.89,0,0,1,3.51,11c.42,1.74.76,3.53,1,5.39s.5,3.77.68,5.69c.7,7.72.84,15.66,1,23.26s.22,14.93.51,21.65a198.45,198.45,0,0,0,1.87,21.47,92.09,92.09,0,0,0,2.8,12.87,41.23,41.23,0,0,0,8.23,15.57,27.14,27.14,0,0,0,6.5,5.4,24.57,24.57,0,0,0,7.44,2.88,25.46,25.46,0,0,0,7.34.41,31.39,31.39,0,0,0,6.77-1.34,50.57,50.57,0,0,0,12.33-6,62.93,62.93,0,0,1-13,0,27.65,27.65,0,0,1-10.12-3,19.42,19.42,0,0,1-6.8-6.55,43,43,0,0,1-4.89-11.38,81.9,81.9,0,0,1-2.3-10.9,187.83,187.83,0,0,1-1.69-19.91c-.27-6.45-.36-13.63-.49-21.3s-.27-15.83-1-24.37c-.21-2.14-.46-4.31-.78-6.5s-.76-4.45-1.31-6.7a125.92,125.92,0,0,0-4-12.43c-1.41-3.89-2.82-7.61-4-11.21A84,84,0,0,1,204,450.81a31.86,31.86,0,0,1-.69-8.93,16.63,16.63,0,0,1,.67-3.62c0-.12.09-.31.15-.49l.18-.54c.11-.36.24-.71.37-1.06.24-.7.52-1.39.77-2.07a67.67,67.67,0,0,1,7.34-13.63c.63-.91,1.25-1.75,1.85-2.54l1.87-2.49,3-4,2.54-3.37.78-1,2.2-3c1.9-2.61,4.7-6.34,8-11,6.68-9.36,15.65-22.44,24.81-37.23,4.57-7.4,9.22-15.19,13.67-23.12s8.77-15.92,12.86-23.61,8-15,11.7-21.61,7.28-12.38,10.49-17.2L309,266.7c.76-1.1,1.52-2.09,2.2-3,1.35-1.9,2.59-3.46,3.65-4.82l1.47-1.89,1.3-1.57,2-2.47,9.5-11c1.48-1.67,2.84-3.34,4.2-4.94s2.69-3.18,4-4.78c5.2-6.29,10-12.58,15.85-20.12" transform="translate(-10.93 -13)"/><path d="M385.37,210.42l3.38,1c.56.15,1.12.34,1.67.46l1.66.36c1.11.22,2.21.48,3.31.65l3.27.43c1.09.16,2.17.22,3.25.28s2.16.12,3.24.15,2.14,0,3.22,0l1.62,0,1.61-.12q1.62-.13,3.26-.3c1.09-.14,2.18-.3,3.29-.47l1.67-.27,1.67-.32c1.12-.23,2.27-.46,3.42-.72,4.6-1.08,9.44-2.5,14.71-4.28,2.85-.95,7.11-2.43,12.3-4.09,2.6-.82,5.44-1.7,8.48-2.53l.29-.08.58-.16.67-.18,2.7-.67c.91-.22,1.81-.46,2.73-.66l2.77-.58c.93-.19,1.85-.41,2.8-.57l2.83-.48c1.89-.35,3.81-.59,5.75-.85a153,153,0,0,1,48.93,1.56c1,.21,2.1.4,3.15.62l3.14.73c2.11.45,4.18,1.07,6.28,1.63,1.05.27,2.08.61,3.12.93l3.13,1c2.07.72,4.16,1.41,6.22,2.22s4.14,1.63,6.21,2.46,4.13,1.77,6.19,2.73q6.19,2.82,12.36,6.06c8.23,4.27,16.46,9,24.81,13.76s16.84,9.68,25.63,14.31q6.59,3.47,13.44,6.67c4.56,2.13,9.23,4.12,14,5.92s9.62,3.45,14.6,4.79A149.13,149.13,0,0,0,687.8,265c10,1.62,19.82,2.4,29,3.81,1.16.17,2.31.35,3.44.56s2.28.38,3.38.62l3.32.71,3.23.83a64.8,64.8,0,0,1,12,4.56l2.73,1.5,2.57,1.69a39.65,39.65,0,0,1,4.81,3.83,69.44,69.44,0,0,1,8.48,9.52c2.63,3.49,5.1,7.22,7.56,11l7.38,11.55,14.42,22.57,50.89,79.66,10.53,16.48c3.34,5.23,6.46,10.11,9.22,14.7s5.15,8.9,7.14,12.93a107.91,107.91,0,0,1,4.81,11.17l.86,2.49.73,2.36c.23.76.41,1.49.61,2.19l.49,2.05a59.13,59.13,0,0,1,1.09,6.7c.17,1.81.21,3.18.22,4.1s0,1.38,0,1.38,0,.12,0,.35,0,.57-.06,1,0,1-.13,1.66-.14,1.42-.31,2.25-.36,1.75-.59,2.76l-.46,1.53c-.15.54-.4,1-.59,1.61a24.47,24.47,0,0,1-4.2,6.9c-.48.61-1.07,1.19-1.64,1.8s-1.23,1.21-1.94,1.8a48.23,48.23,0,0,1-4.72,3.62,146,146,0,0,1-12.61,7.39C839.8,532,828.87,538.12,817,545.07c-23.72,13.9-51.15,31.14-80,51.43-3.6,2.55-7.24,5.1-10.88,7.74l-5.49,4-5.5,4c-3.69,2.69-7.35,5.5-11.08,8.27-1.79,1.35-3.55,2.64-5.32,3.85s-3.54,2.28-5.31,3.24a31.78,31.78,0,0,1-5.23,2.25c-.42.11-.85.29-1.26.36l-1.23.27-1.18.15c-.39.06-.76,0-1.13.05a11.19,11.19,0,0,1-4.14-.77,10.18,10.18,0,0,1-3.52-2.38,23.15,23.15,0,0,1-5.15-9.48,55.33,55.33,0,0,1-1.54-6.2c-.2-1.08-.4-2.17-.56-3.29l-.13-.84-.12-.88-.23-1.76a302.42,302.42,0,0,1-2.2-57.08c.53-9.55,1.51-19.06,2.92-28.47s3.31-18.67,5.5-28,4.59-18.54,6.79-27.85c1.1-4.66,2.16-9.33,3.11-14,.49-2.34.91-4.69,1.34-7s.81-4.68,1.19-7c1.48-9.32,2.55-18.54,3.35-27.59q.6-6.79,1-13.44c.15-2.22.26-4.42.38-6.61.05-1.1.12-2.19.17-3.28l.1-2.32c.33-7.4.51-14.11.63-19.73s.19-10.14.22-13.15c0-2.78,0-5.41,0-7.91q0-1.88-.11-3.67c0-1.25-.11-2.47-.21-3.69a61.27,61.27,0,0,0-2.53-13.71,36.26,36.26,0,0,0-6.33-12.15,25.64,25.64,0,0,0-2.43-2.57,21.83,21.83,0,0,0-2.83-2.19,19.11,19.11,0,0,0-6.6-2.71,18.64,18.64,0,0,1,4.28,5,21.32,21.32,0,0,1,2.21,5.4,45,45,0,0,1,1.26,11c0,3.78-.15,7.71-.42,12l-.22,3.34q-.12,1.79-.21,3.66c-.12,2.5-.22,5.12-.27,7.88-.07,3-.17,7.48-.29,13s-.33,12.18-.66,19.43q-.05,1.14-.1,2.28c0,1.07-.11,2.14-.16,3.21-.12,2.14-.22,4.3-.37,6.46q-.4,6.49-1,13.07c-.77,8.77-1.81,17.66-3.23,26.59-.36,2.23-.71,4.47-1.14,6.7s-.81,4.48-1.28,6.72c-.91,4.49-1.93,9-3,13.56-2.16,9.12-4.56,18.38-6.8,27.87s-4.27,19.26-5.72,29.12-2.5,19.83-3.06,29.84A316.82,316.82,0,0,0,653.63,607l.24,1.84.12.92.14,1c.19,1.28.42,2.57.66,3.86a69.84,69.84,0,0,0,2,7.83,44.8,44.8,0,0,0,3.26,7.89,31.92,31.92,0,0,0,5.49,7.5,24.72,24.72,0,0,0,8.27,5.53,25.73,25.73,0,0,0,9.74,1.85c.8,0,1.63,0,2.4-.12l2.33-.31,2.22-.49c.74-.16,1.42-.41,2.13-.61a46.1,46.1,0,0,0,7.68-3.29c2.35-1.27,4.54-2.63,6.62-4s4-2.87,5.93-4.29c3.67-2.74,7.29-5.51,10.93-8.17l5.43-4,5.42-3.92c3.59-2.61,7.19-5.14,10.74-7.65,28.47-20,55.55-37.07,79-50.81,11.71-6.87,22.5-12.92,32.09-18.15a158.55,158.55,0,0,0,13.86-8.16,62.67,62.67,0,0,0,6.06-4.66c.95-.8,1.83-1.68,2.7-2.51s1.67-1.73,2.42-2.65A39,39,0,0,0,888,510.59c.32-.86.67-1.68.91-2.49s.49-1.58.7-2.32c.36-1.49.69-2.84.87-4s.34-2.28.44-3.2.14-1.69.18-2.31.07-1.09.08-1.4v-.47l0-1.86c0-1.22-.07-3-.29-5.37a73.57,73.57,0,0,0-1.36-8.44l-.61-2.53c-.24-.86-.47-1.76-.74-2.67l-.86-2.77-1-2.9a122.34,122.34,0,0,0-5.45-12.67c-2.21-4.46-4.8-9.12-7.7-14s-6.1-9.83-9.42-15l-10.52-16.48L802.41,330,788,307.43l-7.41-11.59c-2.53-3.93-5.18-8-8.18-11.94a83.69,83.69,0,0,0-10.28-11.5,53.87,53.87,0,0,0-6.31-5c-1.13-.75-2.25-1.51-3.4-2.23l-3.54-2a79.22,79.22,0,0,0-14.83-5.65l-3.77-1-3.76-.8c-1.26-.28-2.5-.46-3.75-.69s-2.49-.42-3.73-.61c-5-.76-9.88-1.33-14.7-1.9s-9.57-1.15-14.19-1.9a134.63,134.63,0,0,1-13.57-3c-4.48-1.21-8.91-2.72-13.3-4.37s-8.73-3.51-13-5.51-8.56-4.12-12.79-6.35C629,227,620.66,222.2,612.3,217.4s-16.76-9.6-25.34-14.05c-4.28-2.23-8.62-4.37-13-6.37-2.18-1-4.41-2-6.61-2.92s-4.45-1.83-6.71-2.66-4.52-1.63-6.78-2.42l-3.43-1.07c-1.14-.35-2.28-.73-3.43-1-2.3-.61-4.57-1.29-6.88-1.79l-3.44-.8c-1.15-.25-2.3-.46-3.45-.68a167.41,167.41,0,0,0-53.54-1.7c-2.12.28-4.22.55-6.3.93l-3.1.53c-1,.18-2,.42-3.06.62l-3,.64c-1,.22-2,.49-3,.73l-3,.74-.73.2-.62.18-.31.09c-3.3.91-6.31,1.85-9,2.72-5.45,1.76-9.7,3.26-12.54,4.24-5.22,1.82-9.77,3.52-13.94,5.14-1,.39-2.06.78-3.06,1.17l-1.49.59L415,201l-2.87,1.14q-1.42.52-2.81,1.07l-1.39.55-1.39.51-2.78,1.05-2.81,1c-.94.34-1.9.69-2.87,1l-3,.93c-1,.3-2,.53-3.09.82l-1.6.42c-.54.14-1.09.22-1.64.34l-3.43.68" transform="translate(-10.93 -13)"/><path d="M269.25,495.64c-.63-6.34-.66-11.52-.72-16.85s-.05-10.83.34-17.81c0-.59.08-1.27.15-2.09l.11-1.33.17-1.56a86.92,86.92,0,0,1,1.54-9.13c.78-3.61,1.93-7.83,3.36-12.49s3.1-9.8,4.77-15.16c3.35-10.72,6.82-22.27,9.88-32.94,6.14-21.34,10.66-39.1,10.66-39.1l2.51-9.81,2.67-10.77c1-4.08,2.06-8.57,3.25-13.25S310.44,303.8,312,299a122.72,122.72,0,0,1,5.61-14.15,119.26,119.26,0,0,1,7.07-12.93,116.18,116.18,0,0,1,7.7-10.79,105.5,105.5,0,0,1,8.91-9.8c1.26-1.18,2.34-2.22,3.31-3.06s1.77-1.55,2.44-2.1c5.42-4.5,9.81-7.82,14.06-11A165.6,165.6,0,0,1,375,225.49a58.62,58.62,0,0,0-17.18,3.41,57.92,57.92,0,0,0-16.84,9.83c-.74.6-1.65,1.35-2.7,2.29s-2.26,2-3.65,3.34A113.32,113.32,0,0,0,324.86,255a125,125,0,0,0-8.35,11.7,128.61,128.61,0,0,0-7.64,14,132.21,132.21,0,0,0-6,15.26c-1.68,5.14-3.05,10.22-4.26,15s-2.26,9.29-3.25,13.34L292.67,335l-2.48,9.74s-4.52,17.65-10.63,38.84c-3,10.6-6.51,22.08-9.84,32.72-1.66,5.32-3.32,10.41-4.79,15.23s-2.69,9.31-3.54,13.24a94.8,94.8,0,0,0-1.68,10.12l-.18,1.74-.11,1.48c-.07.91-.13,1.67-.15,2.33a54.07,54.07,0,0,0,5.46,27.37,69.61,69.61,0,0,0,4.53,7.79" transform="translate(-10.93 -13)"/><path d="M304.48,683.45a35.48,35.48,0,0,0,1.37,6.9,38.05,38.05,0,0,0,2.61,6.32,43,43,0,0,0,3.62,5.68,45.88,45.88,0,0,0,4.51,5.05,49.65,49.65,0,0,0,11.64,8.26,72.19,72.19,0,0,0,15.19,5.68c1.92.49,4.45,1.11,8.09,1.86,1.82.37,3.91.77,6.34,1.21s5.2.88,8.39,1.42c6.87,1.07,16.16,2.34,26.32,3.05a211.06,211.06,0,0,0,31.38,0c.64,0,1.27-.07,1.9-.14l1.87-.21,3.67-.41c.6-.07,1.2-.12,1.79-.21l1.75-.28,3.4-.54c1.11-.17,2.19-.34,3.23-.58l3-.64,2.84-.6c.91-.23,1.77-.47,2.6-.69l4.47-1.21c1.31-.4,2.42-.79,3.34-1.09l2.85-1,.62-.21c.41-.12,1-.35,1.76-.66l2.77-1.11,1.74-.7c.61-.26,1.28-.49,1.94-.82l4.37-2.09c.78-.39,1.61-.74,2.43-1.19l2.53-1.36c3.43-1.92,7.11-4.19,10.84-6.75a280.7,280.7,0,0,0,22.26-17.35c7.15-6,13.89-11.83,19.64-16.3,12.95-10.19,21.7-14.5,26.31-16.58.58-.26,1.16-.53,1.73-.78l1.69-.71c1.11-.5,2.22-.89,3.28-1.33l3.19-1.19c1.06-.36,2.07-.76,3.1-1.09,4.08-1.41,8-2.64,11.79-3.88,7.67-2.46,15.23-4.91,24.28-8-9.41-1.53-17.37-2.63-26-2.49a77.67,77.67,0,0,0-13.53,1.4c-1.2.21-2.42.52-3.66.81s-2.51.67-3.8,1.05-2.61.82-3.93,1.35l-2,.78c-.68.27-1.35.58-2,.87a104.4,104.4,0,0,0-11.55,6q-3.73,2.19-8.2,5.25t-9.63,7.1c-6.1,4.73-13,10.69-20.07,16.65s-14.28,11.85-21.08,16.5c-3.4,2.33-6.68,4.37-9.7,6.07l-2.22,1.2c-.71.4-1.44.71-2.13,1l-3.82,1.84c-.57.3-1.16.5-1.7.72l-1.53.61-2.44,1c-.67.28-1.18.48-1.55.59l-.55.18-2.53.83c-.81.26-1.8.61-3,1l-4,1.07c-.74.19-1.51.41-2.32.61l-2.55.53-2.73.57c-.93.22-1.91.37-2.91.52l-3.07.48-1.59.25c-.53.08-1.08.12-1.63.19l-3.35.37-1.71.19c-.57.07-1.16.08-1.74.13a198.47,198.47,0,0,1-29.22,0c-9.59-.67-18.47-1.88-25.09-2.89-3.08-.51-5.76-.94-8.1-1.35s-4.32-.79-6-1.13c-3.39-.68-5.66-1.22-7.39-1.65-5.08-1.26-9.42-2.56-13.36-3.94a87.72,87.72,0,0,1-10.77-4.56c-1.68-.85-3.29-1.78-4.92-2.75s-3.18-2.08-4.73-3.29a44.33,44.33,0,0,1-4.54-4.1,38.56,38.56,0,0,1-4.19-5.28" transform="translate(-10.93 -13)"/><path d="M512.91,376c6.07-2.88,11.09-5.38,16.11-8.39,2.51-1.5,5-3.14,7.65-5a97.19,97.19,0,0,1,8.11-5.43,20.75,20.75,0,0,1,4.12-1.81c.46-.17,1-.27,1.55-.42.28-.07.58-.11.89-.17l.47-.09.5-.06a21.27,21.27,0,0,1,4.76-.05c.25,0,.68.1,1,.13s.67.07.67.07l.88.19.35.08.47.11a28.59,28.59,0,0,1,5.85,2.08l1.29.66,1.21.7,1.16.74,1.08.75a43,43,0,0,1,6.14,5.45c2.43,2.58,4.46,5.1,6.36,7.49l2.76,3.55c.92,1.19,1.89,2.41,3,3.6a25.8,25.8,0,0,0,3.59,3.34,15.76,15.76,0,0,0,4.5,2.43,12.55,12.55,0,0,0,5.1.66,8.45,8.45,0,0,0,4.73-1.84,7.59,7.59,0,0,1-4.45-.43,9.38,9.38,0,0,1-1.79-.94,10.69,10.69,0,0,1-1.5-1.2,20.33,20.33,0,0,1-4-6.23l-1.79-3.86c-.65-1.38-1.42-2.85-2.27-4.32a52.18,52.18,0,0,0-6.74-9.15,51.57,51.57,0,0,0-7.59-6.79l-1.39-1-1.5-1-1.63-.94-1.74-.89a38.64,38.64,0,0,0-8-2.83l-.65-.15-.48-.1-1.24-.19s-.41-.1-.93-.17-1.11-.16-1.47-.18a31.41,31.41,0,0,0-7,.09l-.75.09-.72.13c-.47.09-.92.16-1.36.26-.86.22-1.67.39-2.4.65a30.07,30.07,0,0,0-6.07,2.69,49,49,0,0,0-9.05,7c-2.36,2.23-4.45,4.36-6.42,6.53-3.94,4.33-7.37,8.76-11.38,14.15" transform="translate(-10.93 -13)"/><path d="M304.13,363.4A12.78,12.78,0,0,0,309.8,362a11,11,0,0,0,4.14-4c.64-1,1.81-3,3.09-5.37a49,49,0,0,1,4.44-6.91A19.45,19.45,0,0,1,324,343.1a21.14,21.14,0,0,1,2.47-1.84l1.06-.63.84-.44c.23-.13.42-.21.55-.27l.2-.09s.27-.13.76-.33l.89-.36,1.2-.42a35,35,0,0,1,11.11-1.57,18.64,18.64,0,0,1,3.5.41,11.46,11.46,0,0,1,2.48.84,8.73,8.73,0,0,1,.8.43c.21.13.39.26.53.36a26.6,26.6,0,0,0,3,1.94,13,13,0,0,1,1.74,1.16,7.59,7.59,0,0,1,1.82,2.09,7.18,7.18,0,0,0,2.12-5.85,8.76,8.76,0,0,0-3.44-6.06c-.3-.24-.68-.52-1.16-.83a16.33,16.33,0,0,0-1.63-.92,19.61,19.61,0,0,0-4.35-1.52,26.69,26.69,0,0,0-5.13-.61,43,43,0,0,0-14,2l-1.56.55-1.18.48c-.65.27-1,.45-1,.45l-.26.12c-.17.08-.42.19-.74.35l-1.14.59L322,334a29.5,29.5,0,0,0-3.52,2.58,27.79,27.79,0,0,0-3.59,3.71,55.26,55.26,0,0,0-5.27,8.13c-1.34,2.42-2.36,4.24-2.89,5.13a13.6,13.6,0,0,0-1.74,4.51c-.08.37-.14.76-.19,1.17l-.17,1.24c-.09.89-.26,1.8-.45,2.9" transform="translate(-10.93 -13)"/><path d="M312.83,492.47a41.91,41.91,0,0,0,20.29,20.8c10.6,5.05,22.88,5.6,34.63,4.78,16-1.12,32.87-5.17,43.82-16.44,3.11-3.21,5.72-7.07,6.38-11.42a2.2,2.2,0,0,0-.34-1.89,2.5,2.5,0,0,0-2.05-.46c-9.12.8-17.71,6.62-26.72,4.93a16.21,16.21,0,0,1-12.77-12.49c-.76-4.13.26-8.34,1.39-12.38,1-3.56,2.34-7.42,5.63-9.3,2.71-1.55,6.1-1.38,9.26-1.15,4,.29,9.16,1.47,9.8,5.32.47,2.85-2,5.32-4.43,6.95s-5.31,3.16-6.35,5.85c-1.29,3.31,1,7.22,4.24,8.84s7.26,1.37,10.78.37a26.4,26.4,0,0,0,18.12-18.07,25.61,25.61,0,0,0-6.79-24.38,42,42,0,0,0-9.6-6.74,98.43,98.43,0,0,0-71.54-8.45c-3.13.84-6.29,1.88-8.78,3.87s-4.16,4.86-5.74,7.63l-4.81,8.44c-1.69,3-3.19,7.1-.53,9.33a16.25,16.25,0,0,1,9.3-5.76c3.71-.67,7.88.49,10.2,3.37a11.69,11.69,0,0,1,2.23,7.48c0,5.62-2.87,11.4-8,14.07s-8.85.25-15.49-3.47a16.64,16.64,0,0,0-4.12,7.66c-.83,4.66,1,10.34,2,12.69" transform="translate(-10.93 -13)"/><path d="M517.07,376.56c.69,1.52,1.31,3,2,4.27.35.66.69,1.32,1.07,2s.77,1.25,1.17,1.88a40.64,40.64,0,0,0,6.58,7.65c.49.47,1.16,1.06,2.15,1.91s2.31,1.93,4.14,3.33a67.28,67.28,0,0,0,10.62,6.53,55,55,0,0,0,5.18,2.21l1.62.6.61.18,1.92.59c.59.2,1.32.36,2.13.55s1.7.43,2.65.59a79.82,79.82,0,0,0,11.7,1.13c1.51.05,2.87.08,4.09.1s2.34,0,3.32,0c2,0,3.43-.1,4.44-.19a28.68,28.68,0,0,0,5.54-.94,12.52,12.52,0,0,0,1.22-.38c.4-.14.79-.27,1.17-.42a19.32,19.32,0,0,0,2.17-1.05,16.11,16.11,0,0,0,3.73-2.85,15.29,15.29,0,0,0,2.73-4,19.43,19.43,0,0,1-7.83,3.37c-.64.17-1.33.25-2,.4l-1.05.16c-.35.06-.72.11-1.09.15-1.48.21-3.11.35-5,.48-.91.08-2.26.13-4.11.16-.93,0-2,0-3.17,0l-4-.1a77.42,77.42,0,0,1-11-1c-.86-.14-1.66-.37-2.39-.53s-1.39-.31-1.92-.49l-1.73-.52-.55-.17-1.47-.55a50.56,50.56,0,0,1-4.72-2,64.66,64.66,0,0,1-9.81-6c-1.71-1.31-3-2.3-3.88-3.11s-1.57-1.34-2-1.78c-2.81-2.53-5-4.55-7.23-6.38-.55-.46-1.1-.91-1.67-1.36l-1.69-1.36c-1.17-.9-2.35-1.87-3.68-2.9" transform="translate(-10.93 -13)"/><path d="M308,373a19.32,19.32,0,0,0-.14,5.44,13.13,13.13,0,0,0,1.75,5.19,10.43,10.43,0,0,0,1.93,2.36,10.9,10.9,0,0,0,2.73,1.85,16.69,16.69,0,0,0,3.11,1.11,26.12,26.12,0,0,0,3.36.64,62,62,0,0,0,9.33.35c.56,0,1.52,0,2.38-.07s1.58-.13,1.58-.13.61,0,1.4-.16a19.73,19.73,0,0,0,2.44-.52,21.88,21.88,0,0,0,8.3-4.42,19.51,19.51,0,0,0,2.29-2.3c.29-.35.57-.67.8-1l.6-.83a26.52,26.52,0,0,0,3-5.73,47.13,47.13,0,0,0,1.59-5l1.2-4.67a32.83,32.83,0,0,1,1.68-4.92,24.12,24.12,0,0,0-3.82,3.8,37.32,37.32,0,0,0-2.9,4.13c-.87,1.42-1.69,2.88-2.54,4.4a48.29,48.29,0,0,1-2.87,4.66l-.47.64c-.18.23-.39.46-.61.72a14,14,0,0,1-1.68,1.68,16.21,16.21,0,0,1-6.12,3.25c-.49.15-1.2.29-1.78.4s-1.07.15-1.07.15-.57.05-1.31.08l-2.18.06a59.35,59.35,0,0,1-8.54-.27,30.71,30.71,0,0,1-5.13-1A9.15,9.15,0,0,1,312.9,381a14.64,14.64,0,0,1-2.75-3.36A23.72,23.72,0,0,1,308,373" transform="translate(-10.93 -13)"/><path d="M586.2,369.22c-1.47-6.68-9.25-11.16-15.05-13.7A43.73,43.73,0,0,0,552,351.84c-6.18.25-14.78,1.59-19.44,6.07a8.85,8.85,0,0,0-1.73,2.34,4,4,0,0,0-1.43.95c-4.94,5-4.62,12.48-1.22,18.24a47.77,47.77,0,0,0,15.67,15.61c5.49,3.24,12.27,4,18.64,3.59a16.58,16.58,0,0,0,3.72-.37c6.32-.88,12.15-3.42,15.92-8.83s5.45-13.9,4.07-20.22" transform="translate(-10.93 -13)"/><path d="M352.09,338.46c-3.64-2.55-8.28-2.82-12.58-2.9a31.52,31.52,0,0,0-8.19.63C312,341.07,310.88,360.12,313,364.79c1.89,4.26,4.09,8.53,7.92,11.36,4,3,9.09,3.56,14,3.45,4.71-.1,9.81-.29,13.78-3.11,3.74-2.66,5.59-7,6.54-11.36a84.65,84.65,0,0,0,2-14.91c.14-4.55-1.26-9-5.12-11.75" transform="translate(-10.93 -13)"/><path d="M384.37,659c9.65-4.72,17.65-8.68,25.71-13.35a271.49,271.49,0,0,0,26.09-17.42l7.12-5.26c3.22-2.36,7.49-5.47,13.23-9.56,2.56-1.8,6-4.17,9.65-6.49,1.85-1.15,3.77-2.3,5.71-3.36s3.88-2,5.76-2.9,3.7-1.58,5.37-2.2,3.23-1.11,4.58-1.48l1.81-.53,1.4-.36,1.2-.31.26-.07.76-.18,2.83-.63c2.44-.51,5.84-1.18,9.81-1.89s8.44-1.53,12.88-2.48A113.64,113.64,0,0,0,531,587.24a71.11,71.11,0,0,0,13.36-5.94l2.77-1.69,2.51-1.74c.83-.55,1.55-1.17,2.28-1.73s1.44-1.12,2.07-1.7a79,79,0,0,0,10.49-11c1.08-1.32,2-2.66,3-3.95s1.77-2.58,2.54-3.85l1.16-1.88,1.07-1.85c.71-1.22,1.34-2.42,2-3.6,2.46-4.74,4.35-9.07,6.13-13.41,3.52-8.67,6.24-17.22,9.3-27.52-7.52,7.66-13.68,14.18-19.56,21.47-2.94,3.63-5.8,7.53-8.71,11.61l-2.22,3.1L558,545.16l-1.16,1.59c-.77,1.09-1.59,2.14-2.41,3.25s-1.68,2.2-2.59,3.28a65.53,65.53,0,0,1-8.41,8.74c-.49.45-1,.86-1.59,1.29s-1.11.91-1.73,1.31l-1.89,1.31-2.07,1.26a55,55,0,0,1-10.3,4.54,102.59,102.59,0,0,1-10.8,2.88c-4.05.88-8.38,1.68-12.37,2.42s-7.64,1.47-10.27,2l-3.13.72-.85.2-.3.08-1.37.34-1.6.4-2.13.6c-1.57.42-3.46,1.06-5.54,1.76s-4.33,1.63-6.61,2.67-4.61,2.19-6.87,3.43-4.47,2.55-6.54,3.84c-4.14,2.6-7.77,5.14-10.41,7-5.9,4.21-10.17,7.34-13.45,9.76s-5.5,4.09-7.2,5.38a182.53,182.53,0,0,0-23.78,21.09A228.09,228.09,0,0,0,384.37,659" transform="translate(-10.93 -13)"/><path d="M307.69,590.86a59.12,59.12,0,0,0-5.09,12.66c-.27,1.06-.58,2.13-.78,3.2s-.39,2.15-.57,3.23-.25,2.17-.36,3.27-.15,2.2-.18,3.32a53.91,53.91,0,0,0,1.47,14,60.46,60.46,0,0,0,6,15.43c.25.45.51,1,.82,1.48l1.05,1.69c.39.61.79,1.28,1.26,2l1.6,2.25a73,73,0,0,0,11,11.94c.66.56,1.39,1.26,2.26,1.93l2.81,2.18c1,.72,2.09,1.45,3.15,2.18s2.19,1.36,3.24,2,2.1,1.18,3,1.69,1.8,1,2.55,1.3l2.41,1.11.54.26c.35.16.88.36,1.52.63l2.28.93c.87.34,1.85.65,2.88,1a73.16,73.16,0,0,0,13.08,3.12c1.15.21,2.3.28,3.42.41l1.65.16c.54.05,1.09.06,1.62.08l3.12.12c1,0,2,0,3,0a55.8,55.8,0,0,0,10.52-1.29,49,49,0,0,0,7.9-2.52c2.14-.88,3.82-1.72,5.16-2.41a80.28,80.28,0,0,0,7.26-4.31c2.15-1.43,4.14-2.85,6-4.27a107.16,107.16,0,0,0,10.1-8.66A131.42,131.42,0,0,0,440,640.83c-8.48,4.4-15.58,7.76-22.82,11.53-3.62,1.88-7.28,3.85-11.2,6l-6.1,3.43c-2.1,1.18-4.24,2.39-6.46,3.51A37.77,37.77,0,0,1,376,669.89c-.76,0-1.54,0-2.36,0l-2.49-.1c-.43,0-.86,0-1.3-.07l-1.33-.14c-.89-.1-1.82-.15-2.75-.33a63.41,63.41,0,0,1-10.59-2.5c-.84-.29-1.64-.53-2.35-.8l-1.86-.74c-.53-.21-1-.37-1.25-.5l-.44-.21-2-.93c-.61-.27-1.3-.66-2.07-1.08s-1.63-.85-2.47-1.4-1.76-1-2.63-1.65l-2.56-1.78-2.28-1.77c-.71-.54-1.3-1.11-1.84-1.55a59.2,59.2,0,0,1-8.83-9.57l-1.29-1.8c-.38-.56-.7-1.1-1-1.59l-.86-1.35c-.26-.42-.46-.82-.67-1.19a94.64,94.64,0,0,1-5.8-12.24,109.62,109.62,0,0,1-3.75-11.3,96.12,96.12,0,0,1-2.53-11.44,78.69,78.69,0,0,1-1-13" transform="translate(-10.93 -13)"/><path d="M287,478.94c4.21,0,4.21-6.54,0-6.54s-4.21,6.54,0,6.54" transform="translate(-10.93 -13)"/><path d="M276.39,504.82c4.21,0,4.21-6.54,0-6.54s-4.21,6.54,0,6.54" transform="translate(-10.93 -13)"/><path d="M468.17,522.49c8.42,0,8.43-13.08,0-13.08s-8.43,13.08,0,13.08" transform="translate(-10.93 -13)"/><path d="M465.72,480.81c8.42,0,8.43-13.08,0-13.08s-8.43,13.08,0,13.08" transform="translate(-10.93 -13)"/><path d="M506.59,498c8.42,0,8.43-13.08,0-13.08s-8.43,13.08,0,13.08" transform="translate(-10.93 -13)"/><path d="M614.4,637.85c1.69.76,2.75,1.1,4.14.55l5.05-2.07,3.94-1.59,4-1.52,5.11-1.93c1.39-.54,1.93-1.52,2.65-3.22-1.64-.86-2.69-1.26-4.12-.77-.77.26-3.07,1.11-5.17,1.92l-4,1.56-4,1.58c-2.09.84-4.35,1.78-5.09,2.11-1.38.61-1.88,1.63-2.5,3.37" transform="translate(-10.93 -13)"/><path class="cls-5" d="M398.11,624.58c4.21,0,4.21-6.54,0-6.54s-4.21,6.54,0,6.54" transform="translate(-10.93 -13)"/><path d="M277.91,467.24a85.56,85.56,0,0,1-10.15,8.39c-1.68,1.27-3.34,2.57-5,4-.81.71-1.62,1.46-2.4,2.26l-1.18,1.21c-.38.41-.75.84-1.12,1.27a48.51,48.51,0,0,0-7.63,12.08A56.74,56.74,0,0,0,246,512.53a73.83,73.83,0,0,0-.57,8.77c0,2,0,4.29.3,7a70.42,70.42,0,0,0,1.4,9.16,68.33,68.33,0,0,0,3.9,12.34c.89,2.09,1.81,3.94,2.51,5.27l1.18,2.14,1.06,1.79c.32.56.74,1.21,1.22,1.92s1,1.52,1.61,2.32l.92,1.25c.32.42.66.83,1,1.26l1,1.27,1.09,1.23c.72.82,1.48,1.58,2.19,2.32s1.42,1.4,2.1,2a52.69,52.69,0,0,0,10.91,7.69,42.14,42.14,0,0,0,10.43,3.85,37.11,37.11,0,0,0,8.73.9c.63,0,1.22-.06,1.8-.08s1.12-.08,1.63-.15l1.48-.18,1.31-.23a38,38,0,0,0,9-2.89,40.88,40.88,0,0,0,7.19-4.28,42.89,42.89,0,0,0,10-10.53,55.06,55.06,0,0,0,6-11.72,98.7,98.7,0,0,0,3.73-13,135.78,135.78,0,0,1-17.58,17.66,60.54,60.54,0,0,1-9.45,6.38,38.3,38.3,0,0,1-11.5,4.19l-.83.14-.92.1a9,9,0,0,1-1,.08c-.35,0-.72,0-1.1,0a22.85,22.85,0,0,1-5.34-.58,27.75,27.75,0,0,1-6.85-2.56,38.36,38.36,0,0,1-7.87-5.59c-.51-.43-1-1-1.58-1.5s-1.12-1.14-1.67-1.77l-.84-.94-.8-1c-.26-.33-.53-.64-.78-1l-.71-1c-.48-.62-.89-1.23-1.26-1.79s-.71-1-1-1.48l-.85-1.38-.9-1.69c-.54-1.05-1.25-2.52-1.94-4.17a60.81,60.81,0,0,1-3.1-9.83,56.26,56.26,0,0,1-1.14-7.36c-.21-2.15-.24-4-.26-5.6a63,63,0,0,1,.42-7.06A85.44,85.44,0,0,1,267,490.15l.57-1.3.62-1.27c.4-.86.84-1.71,1.3-2.58.92-1.74,1.92-3.52,2.93-5.38a62.17,62.17,0,0,0,5.51-12.38" transform="translate(-10.93 -13)"/><path d="M349.47,541.36a38.86,38.86,0,0,0,7.8,13.39,60.82,60.82,0,0,0,11.07,9.86,89.36,89.36,0,0,0,13.29,7.58c1.21.58,2.45,1.11,3.73,1.67s2.57,1.07,3.91,1.6c2.69,1,5.53,2.1,8.57,3.09,2.06.69,4.78,1.55,8.77,2.72l3.24.93c1.16.33,2.43.65,3.79,1l2.11.55,2.28.55c1.57.38,3.25.79,5.06,1.17,1.22.26,2.53.58,4,.84l4.5.87,4.94.83c1.71.26,3.48.5,5.28.75a187.65,187.65,0,0,0,22.31,1.59l5.3,0c1.72,0,3.39-.13,5-.19.8,0,1.57-.08,2.32-.14l2.19-.17,2-.16,1.89-.21,3.25-.38c1-.11,1.78-.26,2.45-.35l2.09-.32,1.76-.27,4.81-.91A139.45,139.45,0,0,0,513,582.94a113.82,113.82,0,0,0,19.14-8.43,87,87,0,0,0,16.28-11.68c1-.9,2-1.76,2.82-2.68l1.31-1.34,1.22-1.34c1.61-1.76,3-3.49,4.33-5.14,2.59-3.3,4.65-6.29,6.42-8.89,3.51-5.23,5.86-8.9,7.55-11.36s3.26-4.77,4.79-6.87c.76-1.08,1.51-2,2.23-3,.36-.48.75-.93,1.11-1.4s.72-.93,1.1-1.36a102.43,102.43,0,0,1,9-9.59A68.34,68.34,0,0,1,600.47,502a48.49,48.49,0,0,1,13.25-5.79,43.05,43.05,0,0,0-15.48-.72,48,48,0,0,0-14.48,4.39A56.56,56.56,0,0,0,570.51,509c-.54.47-1.05,1-1.57,1.49s-1.05,1-1.56,1.57c-1,1.09-2.05,2.22-3,3.38-1.95,2.32-3.83,4.83-5.67,7.48s-4.35,6.49-7.66,11.39c-1.67,2.44-3.55,5.14-5.76,8a67.21,67.21,0,0,1-7.88,8.54,71.79,71.79,0,0,1-13.26,9.49,98.37,98.37,0,0,1-16.35,7.23,124,124,0,0,1-13.95,3.8l-4.27.82-1.57.25-1.86.28c-.6.08-1.33.22-2.18.31l-2.9.32a143.65,143.65,0,0,1-16.81.77,173.93,173.93,0,0,1-20.38-1.49l-4.87-.69-4.57-.76-4.18-.8c-1.32-.24-2.55-.54-3.68-.77-1.69-.35-3.26-.73-4.72-1.08l-2.13-.51-2-.52c-1.27-.34-2.46-.63-3.55-.94l-3.05-.86c-3.76-1.09-6.34-1.88-8.29-2.51l-8.25-2.61q-2-.63-3.85-1.2l-3.66-1.13c-4.76-1.47-9.12-2.78-13.32-4.15a115.51,115.51,0,0,1-12.28-4.69,42.48,42.48,0,0,1-12-8" transform="translate(-10.93 -13)"/><path class="cls-5" d="M411.33,600.53a56.31,56.31,0,0,0-3.44-6.24,21.32,21.32,0,0,0-2.52-3.4A34.17,34.17,0,0,0,401,586.8a37.84,37.84,0,0,0-5.06-3,24.25,24.25,0,0,0-2.95-1.31,56.28,56.28,0,0,0-8.86-2.34c-4.45-.86-9-1.24-13.42-2.06q-1.06-.2-2.12-.44c-4.13-1.16-8.14-2.73-12.21-4.1-3-1-6.12-1.87-9.25-2.59a36,36,0,0,0-7-1,28.11,28.11,0,0,0-6.13.24,29.72,29.72,0,0,0-4.18,1.16,19.12,19.12,0,0,0-4,2.24,16.06,16.06,0,0,0-3,2.91,11.68,11.68,0,0,0-1.48,2.25,11.31,11.31,0,0,0-1.05,1.23,41.11,41.11,0,0,0-3.47,5.67,26.3,26.3,0,0,0-1.64,3.63,46.48,46.48,0,0,0-1.74,6.42,27.45,27.45,0,0,0-.52,4,48,48,0,0,0,.07,6.7,26.77,26.77,0,0,0,.62,3.94,45.44,45.44,0,0,0,2,6.49,41.11,41.11,0,0,0,3.23,6c1.71,2.82,3.93,5.28,5.79,8a30.1,30.1,0,0,1,1.92,4.77c.53,2.06,1,4.14,1.52,6.2a49.47,49.47,0,0,0,3.19,9.73,31.69,31.69,0,0,0,3.42,5.56,14.46,14.46,0,0,0,1.15,1.29,36.37,36.37,0,0,0,3.39,3.13,25.85,25.85,0,0,0,5,2.87,27.6,27.6,0,0,0,5.44,1.6,15.93,15.93,0,0,0,3.13.38,37.72,37.72,0,0,0,5.79-.19,23.16,23.16,0,0,0,3.09-.64,49.33,49.33,0,0,0,5.74-1.8,28,28,0,0,0,3-1.46,56,56,0,0,0,5.1-3.14,53.81,53.81,0,0,0,6.23-5.32c4.06-3.93,7.83-8.21,12.41-11.57,2.47-1.81,5.17-3.27,7.6-5.12a34.92,34.92,0,0,0,3.25-2.8,68.76,68.76,0,0,0,4.76-5.07,21.77,21.77,0,0,0,2.24-3.11,33,33,0,0,0,2.1-4,24.35,24.35,0,0,0,1.2-4.39,20.43,20.43,0,0,0,.12-4.51,11.13,11.13,0,0,0-.27-2.1,43.47,43.47,0,0,0-2.06-6.57c-.54-1.35-1.09-2.71-1.69-4" transform="translate(-10.93 -13)"/><path class="cls-6" d="M883.15,743.27q-.12-1-.32-1.95l-.17-.87-.19-1.12q-.18-1.06-.44-2.11a54.53,54.53,0,0,0-5.67-14.2q-.51-.88-1.1-1.73a46.8,46.8,0,0,0-18.54-15.57l-1.36-.68a26.83,26.83,0,0,0-5.49-2l-.52-.13a54.58,54.58,0,0,0-8.94-1.79q-.94-.1-1.88-.14c-.84,0-1.69-.05-2.53-.05a53.89,53.89,0,0,0-19.42,3.49,48.84,48.84,0,0,0-17.21,10.84,55.33,55.33,0,0,0-10.66,15.68q-.93,1.95-1.71,3.73c-3.05-8.58-6.84-15-11.77-19.91l0,0a45.43,45.43,0,0,0-13.1-9l-6.26-2.87a26.76,26.76,0,0,0-11.17-2.44c-.88,0-1.75,0-2.62.13-1.54-.12-3.05-.17-4.53-.17A47,47,0,0,0,710.94,708l-.11.08A41.28,41.28,0,0,0,694,704.48c-9.72,0-19.19,3.34-28.13,9.93L665,715l-.49.38v-.19a167.16,167.16,0,0,0-1.4-16.78,53.27,53.27,0,0,0-9.32-23.7A42.4,42.4,0,0,0,628.3,657.6,49.82,49.82,0,0,0,615.85,656a54.53,54.53,0,0,0-6.29.37q-.63,0-1.25.13l-6.19.77a26.8,26.8,0,0,0-13.94,6.08,51.11,51.11,0,0,0-17.32,16.15,26.8,26.8,0,0,0-7.27,15.38l-.45,3.78a26.74,26.74,0,0,0-.62,3.6,52.27,52.27,0,0,0-9.74-.91A54.75,54.75,0,0,0,539.9,703a43.29,43.29,0,0,0-19.5,10.34,49.12,49.12,0,0,0-10.27,13,49.32,49.32,0,0,0-12.29-14.44,26.8,26.8,0,0,0-7.27-4.77l-.51-.23a26.84,26.84,0,0,0-3.56-1.73,60.31,60.31,0,0,0-8.08-2.6,49.09,49.09,0,0,0-13-1.7,63.3,63.3,0,0,0-10.88,1,49.23,49.23,0,0,0-15.42,5.38,49.18,49.18,0,0,0-23.33-5.66,60.58,60.58,0,0,0-8.87.67q-1.32.2-2.61.52l-1.95.49a26.8,26.8,0,0,0-3,.92,45.14,45.14,0,0,0-16.93,11.08,49.44,49.44,0,0,0-8.73,12.08l-.11.23q-.86-.69-1.76-1.36a60.8,60.8,0,0,0-25-10.87,26.83,26.83,0,0,0-3.14-.42l-3.66-.55a26.79,26.79,0,0,0-7.81,0,54.45,54.45,0,0,0-12.85,2.06,50.84,50.84,0,0,0-13.82,6.21,26.9,26.9,0,0,0-6.25,3.68,52.3,52.3,0,0,0-13.91-15.36l-.68-.49c-9.45-6.64-19.24-10-29.11-10a42.37,42.37,0,0,0-7.49.67,47.68,47.68,0,0,0-19.22,6.44A35.76,35.76,0,0,0,218.8,716l-.48.59a41.4,41.4,0,0,0-8,14.54,26.83,26.83,0,0,0-1,3.79,58.12,58.12,0,0,0-1.66,11.1,87.17,87.17,0,0,0,1,16.76q0,1.32.23,2.62c1.17,8.61,3.63,20.35,7.52,35.88l0,.19c1.6,6.2,2.29,9.15,2.58,10.53l0,.19c1.46,6.57,3.12,13.3,4.93,20q.14.52.3,1a26.73,26.73,0,0,0,.7,2.84c1.06,3.51,2,6.66,2.75,9.37.45,1.94,1,4,1.61,6q.12.38.24.77l1,3c5,15.25,13,26.54,23.84,33.56a60.76,60.76,0,0,0,34.56,10.24,77,77,0,0,0,12-1l.57-.1a59.09,59.09,0,0,0,18.36-6.46,55.25,55.25,0,0,0,13.32-10.09q1.44-1.51,2.76-3.19a55,55,0,0,0,16.93,15,61.32,61.32,0,0,0,31.49,8.51,57.38,57.38,0,0,0,35.34-11.68A55.55,55.55,0,0,0,430.17,880a53.58,53.58,0,0,0,5.39-8.45c.76.89,1.54,1.77,2.34,2.63,17.08,18.3,42.15,27.58,74.51,27.58a168,168,0,0,0,16.93-.89c12.49-1.06,23-3.09,32-6.22l.6-.2.68-.24,2.84-1a27,27,0,0,0,3.23-1.42,65.13,65.13,0,0,0,8.56-4.51c7.69,8.24,18,13.27,30.17,14.4q1.23.11,2.47.11h1.55a47.69,47.69,0,0,0,35.79-15.68,60.75,60.75,0,0,0,4.4-5.31,71.83,71.83,0,0,0,7.13,6.25A88.64,88.64,0,0,0,671,894.83a58.56,58.56,0,0,0,17.64,6.08l.26,0a51,51,0,0,0,7.87.62,49.25,49.25,0,0,0,12-1.47v1.66a26.82,26.82,0,0,0,1.34,8.41q.54,2.38,1.32,4.72.11.34.24.68a55.35,55.35,0,0,0,8.63,15.61,26.86,26.86,0,0,0,3.29,4l.77.77a26.89,26.89,0,0,0,2.21,2l1.29,1a26.85,26.85,0,0,0,4,2.67A48,48,0,0,0,757.79,949a59.42,59.42,0,0,0,18.33-3h0a73.32,73.32,0,0,0,15.49-7.14,62.65,62.65,0,0,0,13.89-11.56,206.34,206.34,0,0,0,25.28-32.39l.88-1.24a26.89,26.89,0,0,0,2.54-4.39c2.56-4.22,5.11-8.65,7.62-13.2q.42-.76.79-1.55v0a26.8,26.8,0,0,0,2.49-5.13c5.47-10.73,10.82-22.67,15.94-35.54,3.89-9.8,7.1-18.57,9.57-26.14a26.62,26.62,0,0,0,2.06-6.08q.19-.51.35-1c.83-2.63,1.58-5.25,2.24-7.85a26.88,26.88,0,0,0,1.38-4.83l.35-1.87a30.78,30.78,0,0,0,.82-3.18c.36-1.32.72-2.84,1.11-4.62,4-14.73,5.29-25.85,4.16-34.93" transform="translate(-10.93 -13)"/><path class="cls-7" d="M430.44,733.7q9.28,8.51,8.25,25.52-.77,11.09-7,34-2.32,7.48-3.09,11.34Q425.79,816.18,423,827l-.52,1.8A71.49,71.49,0,0,0,418.07,842q-1.55,4.9-2.45,7.6T413,856.39a29.4,29.4,0,0,1-4,7.09,28.67,28.67,0,0,1-5.41,5.28A30.24,30.24,0,0,1,384.56,875a34.67,34.67,0,0,1-18-4.9q-8.25-4.64-12.89-14.69l-.26-.77L352.08,852q-1.81-4.64-3.61-11.08l-.52-2.58v-.26l-.26-.52-.26-1.55q-2.32-9-3.87-13.15a49.75,49.75,0,0,1-1.29-5.67q-1.29-7.21-2.84-8.76a4,4,0,0,0-2.32-1.55,2.2,2.2,0,0,0-2.06,0q-4.39,2.32-7.73,20.62a21.36,21.36,0,0,1-.77,3.61q-.52,2.32-1.8,7.22-1.81,5.93-2.71,9a57.3,57.3,0,0,1-3.22,8A24.65,24.65,0,0,1,307,868.12a32.21,32.21,0,0,1-10.05,3.48q-16.24,2.58-27.58-5.16-8.51-5.41-13.15-19.59l-.77-2.32-.26-.77q-.77-2.57-1.29-4.9-1.29-4.64-3.09-10.57v-.77L250,825.2q-2.58-9.53-4.64-18.82-.77-3.61-2.84-11.6-5.41-21.65-7-33v-1a70.18,70.18,0,0,1-1-13.15,29.12,29.12,0,0,1,1.29-7.48v-.52q1.55-4.64,3.35-5.93a.23.23,0,0,1,.26-.26v-.26a8.88,8.88,0,0,1,2.84-2.32,21,21,0,0,1,9-3.09h.52q8-2.06,17.53,4.64,8.25,6.19,9.54,15.21.51,3.87,2.06,12.89,2.83,18.56,3.61,27.84l.26.77q2.83,31.19,7.48,31.45,3.35,0,9-27.07,1.8-8.76,2.58-12.11.51-2.32,1.55-7.22Q308.77,759,312.64,753l3.35-5.67v1.29a23.17,23.17,0,0,1,10.83-6.44,29.72,29.72,0,0,1,9.8-1l-.52-.26,5.15.77h.52a34,34,0,0,1,14,6.06,25.62,25.62,0,0,1,8.64,10.7q5.15,14.18,11.6,44.08l.26,1a14,14,0,0,0,.52,2.84,39.72,39.72,0,0,0,.64,4.38q.39,1.81,1.16,4.38a11.57,11.57,0,0,0,1.8,3.87,2.29,2.29,0,0,0,2.32,1q3.87-.51,5.41-14.69a28.41,28.41,0,0,1,.52-3.61q1.55-9.53,3.09-24.23v-.26q.51-3.61.77-7.73.25-1.8.52-5.41l.26-2.84.26-.77q.77-7.21,1.29-12.11l.26-2.32a45.78,45.78,0,0,1,2.58-6.7,23.54,23.54,0,0,1,4.12-5.54,18.44,18.44,0,0,1,7-4.51l2.06-.52q12.11-1.8,19.59,4.9" transform="translate(-10.93 -13)"/><path class="cls-7" d="M578.13,813.09q.25,6.19.39,9.67t-.13,9.54a58.15,58.15,0,0,1-1.16,10.05,61.69,61.69,0,0,1-2.71,8.64,27.92,27.92,0,0,1-4.64,8l-.52.26v.26l-2.32,2.32v-.26l-1.29,1.29a16.4,16.4,0,0,1-1.8,1,38.46,38.46,0,0,1-8,4.12h.26l-2.84,1-.77.26q-10.31,3.61-25.78,4.9a140.55,140.55,0,0,1-14.44.77q-37.12,0-54.9-19.07a50.51,50.51,0,0,1-11.08-18.82,63.91,63.91,0,0,1-3.48-21.14q.13-10.31.13-21.91.51-14.43.26-21.14,0-2.06-.52-7a65.74,65.74,0,0,1-.52-16.75q.77-9.53,5.41-15,4.12-4.64,11.47-5.93t12.5.26a32.57,32.57,0,0,1,4.9,1.55l.77.52,2.32,1h-.26q10.57,7,11.34,23.71a30.32,30.32,0,0,1,.26,4.9v2.84q0,8-1.29,23.71-1,12.89-1.29,19.33-.26,11.35,2.58,18.56A21.1,21.1,0,0,0,501.06,836a28,28,0,0,0,15.47,2.84,15.85,15.85,0,0,0,9.79-3.87q5.93-5.67,5.67-22.43,0-7.21-.77-21.91-1-16.75-.77-25.26v-2.32q0-5.15.13-8.12a77.49,77.49,0,0,1,.9-8,26.14,26.14,0,0,1,2.32-8,22.22,22.22,0,0,1,4.77-5.93,16.68,16.68,0,0,1,7.6-4,26.43,26.43,0,0,1,21.91,4.12h.26l1,.77,1,1a19.37,19.37,0,0,1,6.7,11.08,111.26,111.26,0,0,1,1.8,14.69v3.09q0,7-.52,20.62-.77,11.6-.77,17.27,0,3.35.52,11.34" transform="translate(-10.93 -13)"/><path class="cls-7" d="M720.16,853.3q-.52,9.28-8.51,15.72l.52.26-2.84,1.55-.52.52a23.16,23.16,0,0,1-15.72,3.09,31.69,31.69,0,0,1-9.54-3.35,61.55,61.55,0,0,1-8.64-5.41,59.51,59.51,0,0,1-8.38-8.12q-4.64-5.28-7.09-8.38t-6.83-8.76q-5.41-7.21-8-10.31l-1.29-1.55a3.17,3.17,0,0,0-.77-.52l-1.29-1-1-.77h.26a8.11,8.11,0,0,1-2.06-3.09q-3.09,2.32-3.61,7.22a62,62,0,0,0,.52,10.31q.77,7.48.26,10.57a31.3,31.3,0,0,1-8.12,16.63A21.12,21.12,0,0,1,611.38,875h-1.55q-13.92-1.29-18.56-16H591l-.26-1.29-.52-1.55h.26a72.55,72.55,0,0,1-1.8-17.79v-2.84q0-3.61.26-8.51.25-5.15.26-7.47,0-10.83.77-32.74.51-24.49.52-36.6v-2.06q0-15.47-.52-23.2-.26-1.55-.52-4.12a99.78,99.78,0,0,1-.26-15.72l.26-.52.77-6.44.52,1.29a20.37,20.37,0,0,1,2.06-4.38,25,25,0,0,1,13.66-10.57l-1-.52,6.19-.77h.26a24.39,24.39,0,0,1,10.05.52,15.73,15.73,0,0,1,9.92,6.57,26.52,26.52,0,0,1,4.64,11.86,139.39,139.39,0,0,1,1.16,14,86.94,86.94,0,0,1-.52,13.66q-.26,5.93-.26,8.25a71.26,71.26,0,0,1-1.55,10.57q-1.29,7.22-1.8,11.34a43.67,43.67,0,0,0,0,9.54q.51,5.41,3.35,7,4.89,3.35,16.5-10.31l1.29-1.29q2.32-2.57,7-8.25a175.44,175.44,0,0,1,15-16.24l.77-.77,1.29-1.29q1.8-1.29,3.09-2.32,9.79-7.21,18.3-3.35a44.92,44.92,0,0,1,8.51,5.15l1.55,1.55.77.52a19.63,19.63,0,0,1,5.93,13.92,23.26,23.26,0,0,1-3.48,10.83,36.7,36.7,0,0,1-6.32,8.25q-3.09,2.84-8.76,7.47-2.32,2.07-3.61,3.09L692.32,785v.26l-1,.77-1.29.77q-1.81,1-2.58,1.55-10.31,6.19-12.11,11.34a3.16,3.16,0,0,0-.52,1.8q0,3.61,4.38,8.51a65.76,65.76,0,0,0,7.48,6.7l2.06,2.06q4.89,4.39,15.72,12.37,3.61,2.84,5.93,4.64l1.8,1.29v.26l1.29.77h-.26q7.47,6.45,7,15.21" transform="translate(-10.93 -13)"/><path class="cls-7" d="M856.52,746.58q1,8.25-3.61,25.26-.77,3.61-1.29,5.16a4.16,4.16,0,0,1-.52,1.8l-.77,4.12h-.26q-1,4.64-2.58,9.54l-1,2.84v.77h-.26q-3.61,11.6-10.05,27.84a385.2,385.2,0,0,1-16.5,36.34h.26l-1.29,2.06-.26.77q-4.13,7.48-8.25,14.18l-.26.77-1.29,1.8A178.68,178.68,0,0,1,785.89,909a35.68,35.68,0,0,1-8.25,7,46.21,46.21,0,0,1-9.79,4.51,32.5,32.5,0,0,1-10.05,1.68A20.66,20.66,0,0,1,744.9,918h-.26l-1.29-1-.77-.77v-.26a27.56,27.56,0,0,1-5.67-9.54,22.31,22.31,0,0,1-1-4.64h-.26v-2.84h.26a12.35,12.35,0,0,1,2.84-6.57,44.41,44.41,0,0,1,6.7-6.06,60.3,60.3,0,0,0,5.93-4.9,45.1,45.1,0,0,0,5.67-7.73q2.32-3.87,3.61-5.67a11.7,11.7,0,0,0-.26-8q-1.55-5.15-7.47-14.43a65.55,65.55,0,0,1-6.44-11.08q-6.71-14.17-15-37.12-1-2.57-3.09-8.25-9.54-24.75-10.57-37.89-1-10.05,3.87-16.75a15.67,15.67,0,0,1,4.12-4.12q6.19-4.12,16.24-2.84,1.29.26,3.61.77l-1-1,6.19,2.84a18.69,18.69,0,0,1,5.41,3.61q3.61,3.61,6.44,12.89,5.41,16.5,11.34,35.57l1.29,4.12q.77,2.58,2.32,8.25,3.35,13.67,7.22,19.33l.26.26a9.7,9.7,0,0,0,1.29,1.8q2.32,2.32,3.35,1.29a6.07,6.07,0,0,0,.77-1.29q5.93-14.17,13.66-44.85,1-4.38,2.06-7.73l.52-2.32q1.55-6.44,2.58-9.79a68.19,68.19,0,0,1,3.61-8.76,29.67,29.67,0,0,1,5.41-8.25,22.28,22.28,0,0,1,7.86-4.77,23.14,23.14,0,0,1,16.11-.64l1,.26,1.55.77a20.34,20.34,0,0,1,8.25,6.7,27.65,27.65,0,0,1,2.84,7.22l.26,1.55Z" transform="translate(-10.93 -13)"/></svg>